<svg width="20" height="20" viewBox="0 0 20 20" fill="none" xmlns="http://www.w3.org/2000/svg">
<rect width="20" height="20" rx="4" fill="#003459"/>
<path d="M15.0326 6.40749C14.9629 6.33719 14.8799 6.28139 14.7885 6.24332C14.6971 6.20524 14.5991 6.18564 14.5001 6.18564C14.4011 6.18564 14.303 6.20524 14.2117 6.24332C14.1203 6.28139 14.0373 6.33719 13.9676 6.40749L8.38008 12.0025L6.03258 9.64749C5.96019 9.57756 5.87474 9.52257 5.7811 9.48567C5.68745 9.44877 5.58746 9.43067 5.48683 9.43241C5.38619 9.43415 5.28688 9.4557 5.19457 9.49582C5.10227 9.53594 5.01876 9.59385 4.94883 9.66624C4.87891 9.73863 4.82392 9.82408 4.78702 9.91773C4.75011 10.0114 4.73202 10.1114 4.73376 10.212C4.7355 10.3126 4.75704 10.4119 4.79716 10.5042C4.83728 10.5966 4.89519 10.6801 4.96758 10.75L7.84758 13.63C7.91731 13.7003 8.00026 13.7561 8.09165 13.7942C8.18305 13.8322 8.28108 13.8518 8.38008 13.8518C8.47909 13.8518 8.57712 13.8322 8.66852 13.7942C8.75991 13.7561 8.84286 13.7003 8.91258 13.63L15.0326 7.50999C15.1087 7.43976 15.1695 7.35452 15.211 7.25964C15.2526 7.16477 15.274 7.06231 15.274 6.95874C15.274 6.85516 15.2526 6.75271 15.211 6.65783C15.1695 6.56296 15.1087 6.47772 15.0326 6.40749Z" fill="white"/>
</svg>
